<svg height="400" width="97.5">
  <defs>
    <symbol id="primo" viewBox="0 0 510 515">
      <path fill="#fff" d="M105 303c-14-8-29-19-45-24-11-10-25-10-30-22 16 0 34 0 51 0 14 0 45 2 55 0l90 2-42 25c-23 16-11 18-44 19l39 24c7-5 13-12 19-18l51-44c9-11 3-10 3-11-6-6-11-11-16-19l13-103 5-38 3-38c8 32-2 179 6 196 7 3 28 3 36 3 2 1 2 2 7 3 2 1 4 0 5 0l-43 3-7 0 0 8-4 122 1 5c-4 5-7 5-4 17l1-56c-8 9-8 17-12 28l1-3c-5-4-1-2-8-5l-16-6c-15-18 24-56 29-95-10 6-13 10-20 20-15 19-15 13-20 21-12 14-15 37-6 57 7 17 16 35 25 53l26 53 7-5 24-47c9-13 23-40 27-54 5-11 21-36 28-43 5-7 7-6 15-11 7-3 78-37 84-45 12-1 11-5 21-7 3 3 4-1 1 5-5 5-93 53-106 59-13 5-18 22-24 34-6 13-12 23-17 37-5 7-9 17-14 26l-39 77c-10-3-8-2-13-12l-37-74c-13-24-34-79-47-86-9-6-18-9-30-16-4-3-11-5-14-7-5-3-9-5-15-8z m355-35l6-6c0 0 1-1 2-1l-15-1 23-2c0-16 1-4-5-7l-15-5c-10-9-29-18-42-21l-34-17c-4-4-10-5-15-10-12-3-25-9-33-17l-44-86c-9-22-22-42-31-64-7 9-61 122-70 142-11 23-41 33-62 44-12 7-57 34-67 36l16 1c19 1 46-3 62 3-10 2-41 0-55 0-17 0-35 0-51 0 5-11 3-4 14-13 17-5 56-30 75-39 48-24 49-22 61-49l57-115c6-12 12-26 20-33 17 16 75 151 87 164 4 9-1 4 8 9l64 34c13 7 24 13 37 20l26 14c8 5 3 0 7 8-3 8-5 10-25 16 3-6 2-2-1-5z m-324-11c-16-6-43-2-62-3 18-13 38-24 59-35 10-5 22-11 32-16 19-10 15-7 28-21 2 6 15 22 20 27 5 7 6 7 11 14 4 6 8 8 12 12 5 8 10 13 16 19-5 8 3 5-13 5-3 1-10 0-13 0l-90-2z m152-162c-13 1-2-1-6 5-7 14 1 32 8 46l-14-4-12-21c-3 35 2 67 1 100l-2 31c-8-17 2-164-6-196l-3 38c-11 7-15 29-26 33-8 20-23 39-35 55-13 14-9 11-28 21-10 5-22 11-32 16-21 11-41 22-59 35l-16-1c10-2 55-29 67-36 21-11 51-21 62-44 9-20 63-133 70-142 9 22 22 42 31 64z m-23 126c7-7 31-29 39-32l3 11c-7 8-1 4-1 5 8-4 1-1 11-1-1 4-2 2 4 6 9 5 3 2 10 3 9 9 39 23 51 28 12 5 55 3 74 5l15 5c0 1-1 1-1 1l-14 5c-6 0-14 0-20 0-11 0-23-2-35-2-25-1-50 0-76 0l-26 0c-8 0-29 0-36-3l2-31z m-224 17l73-41c20-11 44-18 52-32l18-38c3-7 6-13 10-20 9-17 47-108 63-108 15 0 45 73 50 84l45 93-8-4c-12-13-70-148-87-164-8 7-14 22-20 33l-57 115c-13 27-13 25-61 49-19 9-58 34-75 39-5-3-6 2-3-6z m179 133l18 37 5-23c4-11 4-19 12-28l-1 56c-3-12 0-12 4-17 1 21-3 40-2 62 0 18 2 15 5 17l-7 5-26-53c-9-18-18-36-25-53-9-20-6-43 6-57 5-8 5-2 20-21 7-10 10-14 20-20-5 39-44 77-29 95z m37 20l3-122 3 16c8-10 4 0 12 13 18 30 32 68 37 76-4 14-18 41-27 54l-4-1c0 0-3 2-4 3 0-1-2-5-2-6l-10-4 6-17c1-4 1-3 0-7 0-22 0-18-5-21-9 4-4 1-7 9-2 3 0 2-2 7z m64-74c-9-16-43-38-53-56l43-3c-1 0-3 1-5 0-5-1-5-2-7-3l26 0 16 5c10 1 42 2 48-3l-47 3 7 9c0 0 4 4 5 7 3 8-1 12-1 23 10 0 19-5 22-4-5 8-15 8-22 18l-26 9z m-128-135c12-16 27-35 35-55 7 3 3 0 7 3 0 0 1 0 1 1 1 0 2 1 3 1 7-3 4 6 5-8 1 1 2 3 2 2l3 6-13 103c-4-4-8-6-12-12-5-7-6-7-11-14-5-5-18-21-20-27z m67 87l1-8 7 0c10 18 44 40 53 56 2 3 4 5 7 8 8 8-1 7 12 6-7 7-23 32-28 43-5-8-19-46-37-76-8-13-4-23-12-13l-2-16z m-139 48l-3-4c-2-2-2-2-5-4-4-3-3-1-8-6 6 3 10 5 15 8 3 2 10 4 14 7 12 7 21 10 30 16 13 7 34 62 47 86l37 74c5 10 3 9 13 12l39-77c5-9 9-19 14-26-1 13-1 4 3 7-4 14-18 37-24 50-9 18-17 36-27 52l-17 0c-13-20-63-134-81-163-6-10-12-11-24-17-5-2-7-4-12-7l-11-8z m204-62c26 0 51-1 76 0 12 0 24 2 36 2 5 0 13 0 19 0l14-5c0 0 1 0 1-1 6 3 5-9 5 7l-23 2c-36-1-22-1-43 12-5 3-2 1-6 4l-29 19c-3-1-12 4-22 4 0-11 4-15 1-23-1-3-5-7-5-7l-7-9 47-3c-6 5-39 4-48 3l-16-5z m-99 4c3 0 10 1 13 0 16-1 8 3 13-5 0 1 6 0-3 11l-51 44c-6 6-12 13-19 18l-39-24c33-1 21-3 44-19l42-25z m129 73c13-6 101-54 106-59 20-6 22-8 25-16-4-8 1-2-7-8l-26-14c-13-7-24-13-37-20l-64-34c-9-5-4 0-8-9l8 4c8-2 3-2 10 1l123 67c11 8 8 7 8 21-12 9-25 13-38 21l-58 32c-8 4-11 6-19 10-36 18-19 9-34 27-2-4-4 5-1-7 1-3 2-4 3-5 4-6 5-4 9-11z m-48-132c6-4 4 7 6-9 0-2-1-2-3-5-3-7-5-15-9-21-3-5-4-7-7-11-1-2-3-7-4-8-7-14-15-32-8-46 4-6-7-4 6-5l44 86c-1 1-5 5-7 7-7 7-8 5-8 16-10 0-3-3-11 1 0-1-6 3 1-5z m-31-58c2 11 0 5 8 15 3 5 4 7 7 12 4 7 10 20 19 17 2 3 3 3 3 6-2 15 0 4-6 8l-3-11c-8 3-32 25-39 32 1-33-4-65-1-100l12 21z m55 71l18 3 16-18c5 5 11 6 15 10-10 6-4 1-8 11 2 2 1 1 7 4 13 5 23 8 35 2 13 3 32 12 42 21-19-2-62 0-74-5-12-5-42-19-51-28z m-202 28c6-16 56-32 58-32 10 0 11 8 18 14 3 4 15 8 11 17-5 8-14 2-25 1-20-1-41 2-62 0z m129 155l-1-5c2-5 0-4 2-7 3-8-2-5 7-9 5 3 5-1 5 21 1 4 1 3 0 7l-6 17 10 4c0 1 2 5 2 6 1-1 4-3 4-3l4 1-24 47c-3-2-5 1-5-17-1-22 3-41 2-62z m95-83c7-10 17-10 22-18l29-19c4-3 1-1 6-4 5 12 19 6 29 3-6 8-77 42-84 45-2-5-1-5-2-7z m-36-109c0-11 1-9 8-16 2-2 6-6 7-7 8 8 21 14 33 17l-16 18-18-3c-7-1-1 2-10-3-6-4-5-2-4-6z m136 56l15 1c-1 0-2 1-2 1l-6 6c-10 2-9 6-21 7-10 3-24 9-29-3 21-13 7-13 43-12z m-412-22c-3 8-2 3 3 6-11 9-9 2-14 13 5 12 19 12 30 22 5 10 3 3-1 6-8-3-14-7-22-11-14-6-12-4-18-17 8-15 7-12 22-19z m235-96l14 4c1 1 3 6 4 8 3 4 4 6 7 11 4 6 6 14 9 21-9 3-15-10-19-17-3-5-4-7-7-12-8-10-6-4-8-15z m38 261c5-14 11-24 17-37 6-12 11-29 24-34-4 7-5 5-9 11-1 1-2 2-3 5-3 12-1 3 1 7l-27 55c-4-3-4 6-3-7z m-255-118c4-3 6 4 1-6 16 5 31 16 45 24 5 5 4 3 8 6 3 2 3 2 5 4l3 4c-15-3-21-9-33-16-12-6-18-9-29-16z m321-77l34 17c-12 6-22 3-35-2-6-3-5-2-7-4 4-10-2-5 8-11z m-152-81c11-4 15-26 26-33l-5 38-3-6c0 1-1-1-2-2-1 14 2 5-6 8 0 0-1-1-2-1 0-1-1-1-1-1-4-3 0 0-7-3z m-8 244l16 6c7 3 3 1 8 5l-1 3-5 23-18-37z m101-54l6 5 26-9c1 2 0 2 2 7-8 5-10 4-15 11-13 1-4 2-12-6-3-3-5-5-7-8z"/>
    </symbol>
    <linearGradient id="bg-gradient" x2="0" y2="1">
      <stop offset="0%" stop-color="rgb(82,107,129)"/>
      <stop offset="50%" stop-color="rgb(187,197,172)"/>
      <stop offset="100%" stop-color="rgb(82,107,129)"/>
    </linearGradient>
    <symbol id="bg" viewBox="0 0 302.22 1333.94">
      <path fill="url(#bg-gradient)" d="M0.01 168.12l0 -9.64c4.32,-21.34 12,-32.33 25.46,-25.58 -2.35,-10.3 -1.53,-26.06 5.79,-25.96 19.18,0.25 29.95,-3.14 40.24,-13.16 -4.5,-66.43 51.39,-54.26 79.61,-93.78l0 0c28.22,39.52 84.1,27.34 79.61,93.78 10.29,10.02 21.06,13.41 40.24,13.16 7.32,-0.1 8.13,15.66 5.79,25.96 13.46,-6.75 21.14,4.24 25.46,25.58l0 9.64 0.01 0 0 1004.21 -0.01 0 0 3.13c-4.32,21.34 -12,32.33 -25.46,25.58 2.35,10.3 1.53,26.06 -5.79,25.96 -19.18,-0.25 -29.95,3.14 -40.24,13.16 4.5,66.43 -51.39,54.26 -79.61,93.78l0 0c-28.22,-39.52 -84.1,-27.34 -79.61,-93.78 -10.29,-10.02 -21.06,-13.41 -40.24,-13.16 -7.32,0.1 -8.13,-15.66 -5.79,-25.96 -13.46,6.75 -21.14,-4.24 -25.46,-25.58l0 -3.13 -0.01 0 0 -1004.21 0.01 0z"/>
    </symbol>
  </defs>
  <use href="#bg" width="100%" height="100%"/>
  <use href="#primo" x="43.5" y="-5" width="10" height="50"/>
  <use href="#primo" x="36.5" y="30" width="25" height="50"/>
  <use href="#primo" x="43.5" y="65" width="10" height="50"/>
</svg>
